# xmcd
#
# Track frame offsets: 
#        150
#        13899
#        33376
#        45616
#        58574
#        77141
#        89344
#        102177
#        116883
#        129273
#        146482
#        168124
#
# Disc length: 2410 seconds
#
# Revision: 0
# Processed by: cddbd v1.5.2PL0 Copyright (c) Steve Scherf et al.
# Submitted via: ExactAudioCopy v0.95b4
#
DISCID=9809680c
DTITLE=David Church and  Open Highway - Over the Edge
DYEAR=1998
DGENRE=Bluegrass
TTITLE0=01  Over the Edge
TTITLE1=02  Angels Don't Lie
TTITLE2=03  Jamie Lynn
TTITLE3=04  Brighten the Love
TTITLE4=05  King's Harbor Shore
TTITLE5=06  See A Bluegrass Show
TTITLE6=07  Left your Heart With Me
TTITLE7=08  Blue and Lonsome ( Worried Over You )
TTITLE8=09  Run Around  ( Instrumental )
TTITLE9=10  Those Memories 
TTITLE10=11  Daddy's Fiddle
TTITLE11=12  Rolling Tide
EXTD=
EXTT0=
EXTT1=
EXTT2=
EXTT3=
EXTT4=
EXTT5=
EXTT6=
EXTT7=
EXTT8=
EXTT9=
EXTT10=
EXTT11=
PLAYORDER=
